<?xml version="1.0" encoding="UTF-8" standalone="no"?>
<svg width="120px" height="114px" viewBox="0 0 120 114" version="1.1" xmlns="http://www.w3.org/2000/svg" xmlns:xlink="http://www.w3.org/1999/xlink">
    <!-- Generator: Sketch 39.1 (31720) - http://www.bohemiancoding.com/sketch -->
    <title>Green Initiatives</title>
    <desc>Created with Sketch.</desc>
    <defs>
        <linearGradient x1="50%" y1="-2.48949813e-15%" x2="50%" y2="100%" id="linearGradient-1">
            <stop stop-color="#8AB445" offset="0%"></stop>
            <stop stop-color="#306741" offset="100%"></stop>
        </linearGradient>
    </defs>
    <g id="Page-1" stroke="none" stroke-width="1" fill="none" fill-rule="evenodd">
        <g id="Artboard" transform="translate(-52.000000, -31.000000)">
            <g id="Green-Initiatives" transform="translate(52.000000, 31.000000)">
                <path d="M78.5087603,0 C90.4561983,0 96.4284298,0 102.859835,1.93700787 C109.881322,4.3719685 115.41124,9.64062992 117.966942,16.3303937 C120,22.4570079 120,28.1489764 120,39.5310236 L120,73.8548031 C120,85.2377953 120,90.927874 117.966942,97.0554331 C115.41124,103.745197 109.881322,109.013858 102.859835,111.447874 C96.4284298,113.385827 90.4561983,113.385827 78.5087603,113.385827 L42.4829752,113.385827 C30.5355372,113.385827 24.562314,113.385827 18.1319008,111.447874 C11.1104132,109.013858 5.58049587,103.745197 3.02479339,97.0554331 C0.991735537,90.927874 0.991735537,85.2377953 0.991735537,73.8548031 L0.991735537,39.5310236 C0.991735537,28.1489764 0.991735537,22.4570079 3.02479339,16.3303937 C5.58049587,9.64062992 11.1104132,4.3719685 18.1319008,1.93700787 C24.562314,0 30.5355372,0 42.4829752,0 L78.5087603,0 Z" id="Green-Initiatives-Icon" fill="url(#linearGradient-1)"></path>
                <g id="Leaf" transform="translate(11.900826, 9.448819)" fill="#FFFFFF">
                    <path d="M33.299,89.102 C17.86,84.527 -26.674,64.976 23.795,0 C51.086,18.521 61.602,34.817 63.549,48.283 C50.495,52.958 41.508,62.047 42.628,78.491 C35.518,61.582 29.94,38.196 27.547,23.615 C26.347,40.648 28.86,70.944 33.299,89.102 L33.299,89.102 Z" id="Shape"></path>
                    <path d="M50.772,93.184 C47.014,82.738 39.207,48.778 97.54,50.65 C99.252,103.998 70.996,102.029 58.164,98.428 C63.476,88.088 70.314,78.756 78.967,70.877 C68.352,76.754 58.899,84.209 50.772,93.184 L50.772,93.184 Z" id="Shape"></path>
                </g>
            </g>
        </g>
    </g>
</svg>