<?xml version="1.0" encoding="UTF-8" standalone="no"?>
<svg width="120px" height="120px" viewBox="0 0 120 120" version="1.1" xmlns="http://www.w3.org/2000/svg" xmlns:xlink="http://www.w3.org/1999/xlink">
    <!-- Generator: Sketch 39.1 (31720) - http://www.bohemiancoding.com/sketch -->
    <title>Green Initiatives</title>
    <desc>Created with Sketch.</desc>
    <defs>
        <linearGradient x1="50%" y1="-2.48949813e-15%" x2="50%" y2="100%" id="linearGradient-1">
            <stop stop-color="#8AB445" offset="0%"></stop>
            <stop stop-color="#306741" offset="100%"></stop>
        </linearGradient>
    </defs>
    <g id="Page-1" stroke="none" stroke-width="1" fill="none" fill-rule="evenodd">
        <g id="Artboard" transform="translate(-53.000000, -31.000000)">
            <g id="Green-Initiatives" transform="translate(52.000000, 31.000000)">
                <path d="M79.163,0 C91.21,0 97.232,0 103.717,2.05 C110.797,4.627 116.373,10.203 118.95,17.283 C121,23.767 121,29.791 121,41.837 L121,78.163 C121,90.21 121,96.232 118.95,102.717 C116.373,109.797 110.797,115.373 103.717,117.949 C97.232,120 91.21,120 79.163,120 L42.837,120 C30.79,120 24.767,120 18.283,117.949 C11.203,115.373 5.627,109.797 3.05,102.717 C1,96.232 1,90.21 1,78.163 L1,41.837 C1,29.791 1,23.767 3.05,17.283 C5.627,10.203 11.203,4.627 18.283,2.05 C24.767,0 30.79,0 42.837,0 L79.163,0 Z" id="Green-Initiatives-Icon" fill="url(#linearGradient-1)"></path>
                <g id="Leaf" transform="translate(12.000000, 10.000000)" fill="#FFFFFF">
                    <path d="M33.299,89.102 C17.86,84.527 -26.674,64.976 23.795,0 C51.086,18.521 61.602,34.817 63.549,48.283 C50.495,52.958 41.508,62.047 42.628,78.491 C35.518,61.582 29.94,38.196 27.547,23.615 C26.347,40.648 28.86,70.944 33.299,89.102 L33.299,89.102 Z" id="Shape"></path>
                    <path d="M50.772,93.184 C47.014,82.738 39.207,48.778 97.54,50.65 C99.252,103.998 70.996,102.029 58.164,98.428 C63.476,88.088 70.314,78.756 78.967,70.877 C68.352,76.754 58.899,84.209 50.772,93.184 L50.772,93.184 Z" id="Shape"></path>
                </g>
            </g>
        </g>
    </g>
</svg>