<?xml version="1.0" encoding="UTF-8" standalone="no"?>
<svg width="120px" height="120px" viewBox="0 0 120 120" version="1.1" xmlns="http://www.w3.org/2000/svg" xmlns:xlink="http://www.w3.org/1999/xlink">
    <!-- Generator: Sketch 39.1 (31720) - http://www.bohemiancoding.com/sketch -->
    <title>Patented Technology</title>
    <desc>Created with Sketch.</desc>
    <defs>
        <linearGradient x1="50%" y1="3.40999681%" x2="50%" y2="100%" id="linearGradient-1">
            <stop stop-color="#FD8677" stop-opacity="0.875028306" offset="0%"></stop>
            <stop stop-color="#CD1311" offset="100%"></stop>
        </linearGradient>
    </defs>
    <g id="Page-1" stroke="none" stroke-width="1" fill="none" fill-rule="evenodd">
        <g id="Artboard" transform="translate(-52.000000, -196.000000)">
            <g id="Patented-Technology" transform="translate(52.000000, 196.000000)">
                <path d="M78.163,0 C90.21,0 96.232,0 102.717,2.05 C109.797,4.627 115.373,10.203 117.95,17.283 C120,23.767 120,29.791 120,41.837 L120,78.163 C120,90.21 120,96.232 117.95,102.717 C115.373,109.797 109.797,115.373 102.717,117.949 C96.232,120 90.21,120 78.163,120 L41.837,120 C29.79,120 23.767,120 17.283,117.949 C10.203,115.373 4.627,109.797 2.05,102.717 C0,96.232 0,90.21 0,78.163 L0,41.837 C0,29.791 0,23.767 2.05,17.283 C4.627,10.203 10.203,4.627 17.283,2.05 C23.767,0 29.79,0 41.837,0 L78.163,0 Z" id="Patented-Technology-Icon" fill="url(#linearGradient-1)"></path>
                <g id="Award-Ribbon" transform="translate(22.000000, 10.000000)" fill="#FFFFFF">
                    <path d="M60.899,68.92 L62.57,100 L37.616,93.101 L13.987,100 L15.102,68.92 C21.506,73.649 29.426,76.446 38,76.446 C46.574,76.446 54.494,73.649 60.899,68.92 L60.899,68.92 Z" id="Shape"></path>
                    <path d="M70.026,37.307 L75.307,34.371 L69.632,32.297 L74.389,28.57 L68.458,27.409 L72.574,22.985 L66.535,22.767 L69.908,17.753 L63.91,18.482 L66.455,13.003 L60.645,14.661 L62.303,8.85 L56.824,11.396 L57.553,5.398 L52.54,8.771 L52.321,2.733 L47.896,6.848 L46.736,0.918 L43.01,5.675 L40.937,0 L38,5.281 L35.064,0 L32.99,5.675 L29.263,0.918 L28.102,6.848 L23.678,2.733 L23.46,8.771 L18.447,5.399 L19.175,11.397 L13.696,8.851 L15.354,14.662 L9.543,13.004 L12.09,18.483 L6.092,17.754 L9.463,22.767 L3.426,22.987 L7.54,27.411 L1.611,28.572 L6.367,32.298 L0.691,34.372 L5.972,37.308 L0.691,40.244 L6.367,42.318 L1.61,46.045 L7.541,47.205 L3.426,51.63 L9.463,51.849 L6.092,56.863 L12.09,56.134 L9.543,61.613 L15.354,59.956 L13.696,65.766 L19.175,63.22 L18.446,69.218 L23.459,65.845 L23.68,71.884 L28.104,67.77 L29.264,73.699 L32.991,68.942 L35.064,74.618 L38.001,69.337 L40.937,74.618 L43.011,68.942 L46.738,73.699 L47.898,67.768 L52.323,71.884 L52.541,65.846 L57.555,69.217 L56.826,63.22 L62.305,65.766 L60.647,59.955 L66.458,61.613 L63.912,56.134 L69.91,56.863 L66.537,51.848 L72.576,51.629 L68.461,47.205 L74.39,46.044 L69.634,42.318 L75.309,40.244 L70.026,37.307 L70.026,37.307 Z M38.833,10.8 C23.856,10.8 11.714,22.941 11.714,37.919 C11.714,45.134 14.538,51.687 19.133,56.545 C13.905,51.602 10.64,44.607 10.64,36.844 C10.64,21.866 22.782,9.725 37.759,9.725 C45.521,9.725 52.516,12.991 57.46,18.218 C52.601,13.624 46.049,10.8 38.833,10.8 L38.833,10.8 Z" id="Shape"></path>
                </g>
            </g>
        </g>
    </g>
</svg>