<?xml version="1.0" encoding="UTF-8" standalone="no"?>
<svg width="26px" height="26px" viewBox="0 0 26 26" version="1.1" xmlns="http://www.w3.org/2000/svg" xmlns:xlink="http://www.w3.org/1999/xlink">
    <!-- Generator: Sketch 39.1 (31720) - http://www.bohemiancoding.com/sketch -->
    <title>phone-icon</title>
    <desc>Created with Sketch.</desc>
    <defs>
        <linearGradient x1="50%" y1="2.99147003%" x2="50%" y2="100%" id="linearGradient-1">
            <stop stop-color="#9CF686" offset="0%"></stop>
            <stop stop-color="#5DA02C" offset="100%"></stop>
        </linearGradient>
    </defs>
    <g id="Page-1" stroke="none" stroke-width="1" fill="none" fill-rule="evenodd">
        <g id="phone-icon">
            <rect id="background" fill="url(#linearGradient-1)" x="0" y="0" width="26" height="26"></rect>
            <path d="M-4.81951985,2.0275879 C-7.07643409,8.8306951 0.80382111,14.3457031 12.9027604,14.3457031 C25.0016998,14.3457031 32.8984179,8.8306951 30.6618117,2.0275879 C28.559121,-4.7755193 20.6788658,-10.2905273 12.9395314,-10.2905273 C5.2001971,-10.2905273 -2.69652104,-4.7755193 -4.81951985,2.0275879 L-4.81951985,2.0275879 L-4.81951985,2.0275879 Z" id="Oval" fill-opacity="0.26" fill="#D8D8D8"></path>
            <path d="M15.710986,17.1074992 C15.443052,17.1297461 15.1974459,16.9962642 14.9518398,16.8627823 C12.6967291,15.5502102 10.7765359,13.6814634 9.4368662,11.4567648 C9.19126,11.0785661 8.9679817,10.6336264 9.0572931,10.1886867 C9.2135879,9.3433012 10.2853236,9.0095964 10.5979132,8.2087049 C10.888175,7.5190484 10.5086019,6.7404039 10.0620453,6.1397353 C9.325227,5.1386209 8.3874582,4.2709885 7.3157224,3.6258259 C6.8021824,3.3143681 6.2439867,3.0474043 5.6411353,3.0029103 C2.93946803,2.8694284 2.78317323,7.3633195 3.14041849,9.1208313 C3.51999158,10.9450842 4.4354326,12.6358551 5.5071683,14.1708971 C8.0302129,17.8194027 11.4910264,20.9117337 15.6886581,22.3800347 C17.1622948,22.8917154 18.7475707,23.2031732 20.265863,22.8472214 C21.0250092,22.6692456 21.7394997,22.3355408 22.2753676,21.7571191 C22.8112355,21.2009445 23.1014972,20.400053 22.9675303,19.6436555 C22.8335633,18.865011 22.2976954,18.2420954 21.7618275,17.6859208 C20.9803535,16.8850293 20.1095682,16.1731258 19.1717994,15.5502102 C18.9931768,15.4389752 18.8145541,15.3277403 18.6136037,15.3054933 C18.3903254,15.2832463 18.1893749,15.3944813 17.9884245,15.5057162 C17.4302288,15.817174 16.9166887,16.1953728 16.4701321,16.6180655 C16.2691817,16.8182883 16.0459034,17.0185112 15.7779695,17.0630052 C15.7556416,17.0852522 15.7333138,17.1074992 15.710986,17.1074992 L15.710986,17.1074992 L15.710986,17.1074992 L15.710986,17.1074992 Z" id="Shape" fill="#FFFDFD"></path>
        </g>
    </g>
</svg>